<svg width="162" height="54" viewBox="0 0 162 54" fill="none" xmlns="http://www.w3.org/2000/svg">
<path d="M34.8217 25.0955H41.723L49.0119 42.6864H49.3221L56.611 25.0955H63.5123V51.2773H58.0843V34.2361H57.8646L51.0151 51.1495H47.3189L40.4694 34.1722H40.2497V51.2773H34.8217V25.0955Z" fill="white"/>
<path d="M80.7492 42.9165V31.641H86.2547V51.2773H80.9689V47.7106H80.7622C80.3141 48.8612 79.5689 49.7859 78.5264 50.4847C77.4925 51.1836 76.2303 51.533 74.7397 51.533C73.4129 51.533 72.2455 51.2347 71.2374 50.6381C70.2294 50.0415 69.441 49.1935 68.8724 48.0941C68.3124 46.9947 68.028 45.6779 68.0194 44.1438V31.641H73.5249V43.1722C73.5335 44.3313 73.848 45.2475 74.4683 45.9208C75.0887 46.5941 75.9201 46.9308 76.9626 46.9308C77.626 46.9308 78.2464 46.7816 78.8236 46.4833C79.4009 46.1765 79.8661 45.7248 80.2194 45.1282C80.5812 44.5316 80.7579 43.7944 80.7492 42.9165Z" fill="white"/>
<path d="M107.175 37.2404L102.135 37.5472C102.049 37.1211 101.863 36.7376 101.579 36.3967C101.295 36.0472 100.92 35.7702 100.455 35.5657C99.998 35.3526 99.4509 35.2461 98.8133 35.2461C97.9604 35.2461 97.2409 35.4251 96.6551 35.783C96.0692 36.1325 95.7762 36.6012 95.7762 37.1893C95.7762 37.658 95.9658 38.0543 96.3449 38.3782C96.724 38.7021 97.3745 38.962 98.2964 39.158L101.889 39.8739C103.819 40.266 105.258 40.8967 106.206 41.766C107.153 42.6353 107.627 43.7773 107.627 45.1921C107.627 46.479 107.244 47.6083 106.477 48.5799C105.719 49.5515 104.676 50.31 103.35 50.8555C102.031 51.3924 100.511 51.6609 98.7875 51.6609C96.1597 51.6609 94.066 51.1197 92.5066 50.0373C90.9557 48.9464 90.0468 47.4634 89.7797 45.5884L95.1947 45.3072C95.3584 46.0998 95.7547 46.7049 96.3837 47.1225C97.0126 47.5316 97.8182 47.7361 98.8004 47.7361C99.7654 47.7361 100.541 47.5529 101.127 47.1864C101.721 46.8114 102.023 46.3299 102.031 45.7418C102.023 45.2475 101.812 44.8427 101.398 44.5273C100.984 44.2035 100.347 43.9563 99.4853 43.7859L96.0476 43.1083C94.1091 42.7248 92.6659 42.06 91.7182 41.114C90.7791 40.168 90.3095 38.962 90.3095 37.4961C90.3095 36.2347 90.6542 35.1481 91.3434 34.2361C92.0413 33.3242 93.0192 32.6211 94.2771 32.1268C95.5436 31.6325 97.0255 31.3853 98.7228 31.3853C101.23 31.3853 103.203 31.9094 104.642 32.9577C106.089 34.006 106.934 35.4336 107.175 37.2404Z" fill="white"/>
<path d="M111.094 51.2773V31.641H116.6V51.2773H111.094ZM113.86 29.1097C113.041 29.1097 112.339 28.8413 111.753 28.3043C111.176 27.7589 110.887 27.1069 110.887 26.3484C110.887 25.5984 111.176 24.9549 111.753 24.418C112.339 23.8725 113.041 23.5998 113.86 23.5998C114.678 23.5998 115.376 23.8725 115.953 24.418C116.539 24.9549 116.832 25.5984 116.832 26.3484C116.832 27.1069 116.539 27.7589 115.953 28.3043C115.376 28.8413 114.678 29.1097 113.86 29.1097Z" fill="white"/>
<path d="M129.979 51.6609C127.945 51.6609 126.196 51.2347 124.732 50.3825C123.276 49.5217 122.156 48.3285 121.372 46.8029C120.596 45.2773 120.208 43.5217 120.208 41.5359C120.208 39.5245 120.6 37.7603 121.385 36.2433C122.177 34.7177 123.302 33.5288 124.758 32.6765C126.214 31.8157 127.945 31.3853 129.953 31.3853C131.685 31.3853 133.201 31.6964 134.502 32.3185C135.803 32.9407 136.833 33.8143 137.591 34.9393C138.349 36.0643 138.767 37.3853 138.844 38.9023H133.649C133.503 37.9222 133.115 37.1339 132.486 36.5373C131.866 35.9322 131.051 35.6296 130.043 35.6296C129.19 35.6296 128.445 35.8597 127.808 36.32C127.179 36.7717 126.688 37.4322 126.334 38.3015C125.981 39.1708 125.804 40.2234 125.804 41.4592C125.804 42.712 125.977 43.7773 126.321 44.6552C126.675 45.533 127.17 46.2021 127.808 46.6623C128.445 47.1225 129.19 47.3526 130.043 47.3526C130.672 47.3526 131.237 47.2248 131.736 46.9691C132.245 46.7134 132.663 46.3427 132.99 45.8569C133.326 45.3626 133.546 44.7702 133.649 44.0799H138.844C138.758 45.5799 138.345 46.9009 137.604 48.043C136.871 49.1765 135.859 50.0629 134.567 50.7021C133.274 51.3413 131.745 51.6609 129.979 51.6609Z" fill="white"/>
<path d="M151.338 51.6609C149.331 51.6609 147.595 51.239 146.13 50.3952C144.674 49.543 143.55 48.3583 142.757 46.8413C141.964 45.3157 141.568 43.5472 141.568 41.5359C141.568 39.5075 141.964 37.7347 142.757 36.2177C143.55 34.6921 144.674 33.5075 146.13 32.6637C147.595 31.8114 149.331 31.3853 151.338 31.3853C153.346 31.3853 155.078 31.8114 156.534 32.6637C157.998 33.5075 159.127 34.6921 159.92 36.2177C160.712 37.7347 161.109 39.5075 161.109 41.5359C161.109 43.5472 160.712 45.3157 159.92 46.8413C159.127 48.3583 157.998 49.543 156.534 50.3952C155.078 51.239 153.346 51.6609 151.338 51.6609ZM151.364 47.4421C152.277 47.4421 153.04 47.1864 153.652 46.6751C154.263 46.1552 154.724 45.4478 155.035 44.5529C155.353 43.658 155.513 42.6396 155.513 41.4975C155.513 40.3555 155.353 39.337 155.035 38.4421C154.724 37.5472 154.263 36.8398 153.652 36.32C153.04 35.8001 152.277 35.5401 151.364 35.5401C150.442 35.5401 149.667 35.8001 149.038 36.32C148.418 36.8398 147.948 37.5472 147.629 38.4421C147.319 39.337 147.164 40.3555 147.164 41.4975C147.164 42.6396 147.319 43.658 147.629 44.5529C147.948 45.4478 148.418 46.1552 149.038 46.6751C149.667 47.1864 150.442 47.4421 151.364 47.4421Z" fill="white"/>
<path d="M27.6838 38.4908C27.7763 39.1252 27.8241 39.7739 27.8241 40.4336C27.8241 47.8894 21.714 53.9336 14.1767 53.9336C6.63945 53.9336 0.529297 47.8894 0.529297 40.4336C0.529297 32.9777 6.63945 26.9336 14.1767 26.9336C17.1294 26.9336 19.8631 27.8612 22.0962 29.4378V0.208984L45.1308 6.31664V16.7881L27.6838 11.9402V38.4908Z" fill="white"/>
</svg>
