<svg width="160" height="54" viewBox="0 0 160 54" fill="none" xmlns="http://www.w3.org/2000/svg">
<path d="M34.5646 25.0311H41.3913L48.6016 42.622H48.9084L56.1186 25.0311H62.9453V51.2129H57.576V34.1717H57.3587L50.5831 51.085H46.9268L40.1513 34.1078H39.9339V51.2129H34.5646V25.0311Z" fill="#E71F56"/>
<path d="M79.9961 42.8521V31.5765H85.4421V51.2129H80.2134V47.6461H80.0089C79.5657 48.7967 78.8285 49.7214 77.7972 50.4203C76.7745 51.1191 75.5259 51.4686 74.0515 51.4686C72.739 51.4686 71.5842 51.1703 70.587 50.5737C69.5898 49.9771 68.81 49.1291 68.2475 48.0297C67.6935 46.9302 67.4123 45.6135 67.4038 44.0794V31.5765H72.8498V43.1078C72.8583 44.2669 73.1694 45.1831 73.783 45.8564C74.3967 46.5297 75.2191 46.8663 76.2504 46.8663C76.9066 46.8663 77.5202 46.7172 78.0913 46.4189C78.6623 46.112 79.1225 45.6603 79.4719 45.0637C79.8299 44.4672 80.0046 43.7299 79.9961 42.8521Z" fill="#E71F56"/>
<path d="M106.136 37.176L101.151 37.4828C101.065 37.0566 100.882 36.6731 100.601 36.3322C100.32 35.9828 99.9489 35.7058 99.4886 35.5012C99.0369 35.2882 98.4957 35.1816 97.8651 35.1816C97.0213 35.1816 96.3097 35.3606 95.7301 35.7186C95.1506 36.068 94.8608 36.5368 94.8608 37.1248C94.8608 37.5936 95.0483 37.9899 95.4233 38.3137C95.7983 38.6376 96.4418 38.8975 97.3537 39.0936L100.908 39.8095C102.817 40.2015 104.24 40.8322 105.178 41.7015C106.115 42.5708 106.584 43.7129 106.584 45.1277C106.584 46.4146 106.205 47.5439 105.446 48.5154C104.696 49.487 103.665 50.2456 102.352 50.791C101.048 51.3279 99.544 51.5964 97.8395 51.5964C95.2401 51.5964 93.169 51.0552 91.6264 49.9728C90.0923 48.8819 89.1932 47.399 88.929 45.524L94.2855 45.2427C94.4474 46.0353 94.8395 46.6404 95.4616 47.0581C96.0838 47.4672 96.8807 47.6717 97.8523 47.6717C98.8068 47.6717 99.5739 47.4885 100.153 47.122C100.741 46.747 101.04 46.2654 101.048 45.6774C101.04 45.1831 100.831 44.7782 100.422 44.4629C100.013 44.139 99.3821 43.8919 98.5298 43.7214L95.1293 43.0439C93.2117 42.6603 91.7841 41.9956 90.8466 41.0495C89.9176 40.1035 89.4531 38.8975 89.4531 37.4316C89.4531 36.1703 89.794 35.0836 90.4759 34.1717C91.1662 33.2598 92.1335 32.5566 93.3778 32.0623C94.6307 31.568 96.0966 31.3208 97.7756 31.3208C100.256 31.3208 102.207 31.845 103.631 32.8933C105.063 33.9416 105.898 35.3691 106.136 37.176Z" fill="#E71F56"/>
<path d="M110.013 51.2129V31.5765H115.459V51.2129H110.013ZM112.749 29.0453C111.939 29.0453 111.245 28.7768 110.665 28.2399C110.094 27.6944 109.809 27.0424 109.809 26.2839C109.809 25.5339 110.094 24.8904 110.665 24.3535C111.245 23.8081 111.939 23.5353 112.749 23.5353C113.559 23.5353 114.249 23.8081 114.82 24.3535C115.399 24.8904 115.689 25.5339 115.689 26.2839C115.689 27.0424 115.399 27.6944 114.82 28.2399C114.249 28.7768 113.559 29.0453 112.749 29.0453Z" fill="#E71F56"/>
<path d="M128.694 51.5964C126.683 51.5964 124.952 51.1703 123.504 50.318C122.063 49.4572 120.955 48.264 120.18 46.7385C119.413 45.2129 119.029 43.4572 119.029 41.4714C119.029 39.46 119.417 37.6958 120.192 36.1788C120.977 34.6532 122.089 33.4643 123.529 32.612C124.969 31.7512 126.683 31.3208 128.668 31.3208C130.381 31.3208 131.881 31.6319 133.168 32.2541C134.455 32.8762 135.474 33.7498 136.224 34.8748C136.974 35.9998 137.387 37.3208 137.464 38.8379H132.325C132.18 37.8578 131.796 37.0694 131.174 36.4728C130.56 35.8677 129.755 35.5652 128.758 35.5652C127.914 35.5652 127.177 35.7953 126.546 36.2555C125.924 36.7072 125.438 37.3677 125.089 38.237C124.739 39.1064 124.565 40.1589 124.565 41.3947C124.565 42.6475 124.735 43.7129 125.076 44.5907C125.425 45.4686 125.915 46.1376 126.546 46.5978C127.177 47.0581 127.914 47.2882 128.758 47.2882C129.38 47.2882 129.938 47.1603 130.433 46.9047C130.935 46.649 131.349 46.2782 131.673 45.7924C132.005 45.2981 132.222 44.7058 132.325 44.0154H137.464C137.379 45.5154 136.969 46.8365 136.237 47.9785C135.512 49.112 134.511 49.9984 133.232 50.6376C131.954 51.2768 130.441 51.5964 128.694 51.5964Z" fill="#E71F56"/>
<path d="M149.823 51.5964C147.837 51.5964 146.12 51.1745 144.671 50.3308C143.23 49.4785 142.118 48.2939 141.334 46.7768C140.55 45.2512 140.158 43.4828 140.158 41.4714C140.158 39.443 140.55 37.6703 141.334 36.1532C142.118 34.6277 143.23 33.443 144.671 32.5993C146.12 31.747 147.837 31.3208 149.823 31.3208C151.809 31.3208 153.522 31.747 154.962 32.5993C156.411 33.443 157.527 34.6277 158.311 36.1532C159.096 37.6703 159.488 39.443 159.488 41.4714C159.488 43.4828 159.096 45.2512 158.311 46.7768C157.527 48.2939 156.411 49.4785 154.962 50.3308C153.522 51.1745 151.809 51.5964 149.823 51.5964ZM149.848 47.3777C150.752 47.3777 151.506 47.122 152.111 46.6106C152.716 46.0907 153.172 45.3833 153.479 44.4885C153.794 43.5936 153.952 42.5751 153.952 41.4331C153.952 40.291 153.794 39.2725 153.479 38.3777C153.172 37.4828 152.716 36.7754 152.111 36.2555C151.506 35.7356 150.752 35.4757 149.848 35.4757C148.936 35.4757 148.169 35.7356 147.547 36.2555C146.934 36.7754 146.469 37.4828 146.154 38.3777C145.847 39.2725 145.694 40.291 145.694 41.4331C145.694 42.5751 145.847 43.5936 146.154 44.4885C146.469 45.3833 146.934 46.0907 147.547 46.6106C148.169 47.122 148.936 47.3777 149.848 47.3777Z" fill="#E71F56"/>
<path d="M27.5038 38.4264C27.5953 39.0608 27.6426 39.7094 27.6426 40.3691C27.6426 47.825 21.5984 53.8691 14.1426 53.8691C6.68673 53.8691 0.642578 47.825 0.642578 40.3691C0.642578 32.9133 6.68673 26.8691 14.1426 26.8691C17.0634 26.8691 19.7675 27.7967 21.9766 29.3734V0.144531L44.7624 6.25219V16.7237L27.5038 11.8758V38.4264Z" fill="#E71F56"/>
</svg>
