<svg width="162" height="55" viewBox="0 0 162 55" fill="none" xmlns="http://www.w3.org/2000/svg">
<path d="M34.8217 25.2108H41.723L49.0119 42.8017H49.3221L56.611 25.2108H63.5123V51.3926H58.0843V34.3514H57.8646L51.0151 51.2647H47.3189L40.4694 34.2875H40.2497V51.3926H34.8217V25.2108Z" fill="url(#paint0_linear_329_54)"/>
<path d="M80.7492 43.0318V31.7562H86.2547V51.3926H80.9689V47.8258H80.7622C80.3141 48.9764 79.5689 49.9011 78.5264 50.6C77.4925 51.2988 76.2303 51.6483 74.7397 51.6483C73.4129 51.6483 72.2455 51.35 71.2374 50.7534C70.2294 50.1568 69.441 49.3088 68.8724 48.2093C68.3124 47.1099 68.028 45.7931 68.0194 44.2591V31.7562H73.5249V43.2875C73.5335 44.4466 73.848 45.3627 74.4683 46.036C75.0887 46.7093 75.9201 47.046 76.9626 47.046C77.626 47.046 78.2464 46.8968 78.8236 46.5985C79.4009 46.2917 79.8661 45.84 80.2194 45.2434C80.5812 44.6468 80.7579 43.9096 80.7492 43.0318Z" fill="url(#paint1_linear_329_54)"/>
<path d="M107.175 37.3556L102.135 37.6625C102.049 37.2363 101.863 36.8528 101.579 36.5119C101.295 36.1625 100.92 35.8855 100.455 35.6809C99.998 35.4679 99.4509 35.3613 98.8133 35.3613C97.9604 35.3613 97.2409 35.5403 96.6551 35.8983C96.0692 36.2477 95.7762 36.7164 95.7762 37.3045C95.7762 37.7733 95.9658 38.1696 96.3449 38.4934C96.724 38.8173 97.3745 39.0772 98.2964 39.2733L101.889 39.9892C103.819 40.3812 105.258 41.0119 106.206 41.8812C107.153 42.7505 107.627 43.8926 107.627 45.3074C107.627 46.5943 107.244 47.7235 106.477 48.6951C105.719 49.6667 104.676 50.4252 103.35 50.9707C102.031 51.5076 100.511 51.7761 98.7875 51.7761C96.1597 51.7761 94.066 51.2349 92.5066 50.1525C90.9557 49.0616 90.0468 47.5787 89.7797 45.7037L95.1947 45.4224C95.3584 46.215 95.7547 46.8201 96.3837 47.2377C97.0126 47.6468 97.8182 47.8514 98.8004 47.8514C99.7654 47.8514 100.541 47.6681 101.127 47.3017C101.721 46.9267 102.023 46.4451 102.031 45.8571C102.023 45.3627 101.812 44.9579 101.398 44.6426C100.984 44.3187 100.347 44.0716 99.4853 43.9011L96.0476 43.2235C94.1091 42.84 92.6659 42.1752 91.7182 41.2292C90.7791 40.2832 90.3095 39.0772 90.3095 37.6113C90.3095 36.35 90.6542 35.2633 91.3434 34.3514C92.0413 33.4395 93.0192 32.7363 94.2771 32.242C95.5436 31.7477 97.0255 31.5005 98.7228 31.5005C101.23 31.5005 103.203 32.0247 104.642 33.073C106.089 34.1213 106.934 35.5488 107.175 37.3556Z" fill="url(#paint2_linear_329_54)"/>
<path d="M111.094 51.3926V31.7562H116.6V51.3926H111.094ZM113.86 29.225C113.041 29.225 112.339 28.9565 111.753 28.4196C111.176 27.8741 110.887 27.2221 110.887 26.4636C110.887 25.7136 111.176 25.0701 111.753 24.5332C112.339 23.9877 113.041 23.715 113.86 23.715C114.678 23.715 115.376 23.9877 115.953 24.5332C116.539 25.0701 116.832 25.7136 116.832 26.4636C116.832 27.2221 116.539 27.8741 115.953 28.4196C115.376 28.9565 114.678 29.225 113.86 29.225Z" fill="url(#paint3_linear_329_54)"/>
<path d="M129.979 51.7761C127.945 51.7761 126.196 51.35 124.732 50.4977C123.276 49.6369 122.156 48.4437 121.372 46.9181C120.596 45.3926 120.208 43.6369 120.208 41.6511C120.208 39.6397 120.6 37.8755 121.385 36.3585C122.177 34.8329 123.302 33.644 124.758 32.7917C126.214 31.9309 127.945 31.5005 129.953 31.5005C131.685 31.5005 133.201 31.8116 134.502 32.4338C135.803 33.0559 136.833 33.9295 137.591 35.0545C138.349 36.1795 138.767 37.5005 138.844 39.0176H133.649C133.503 38.0375 133.115 37.2491 132.486 36.6525C131.866 36.0474 131.051 35.7449 130.043 35.7449C129.19 35.7449 128.445 35.975 127.808 36.4352C127.179 36.8869 126.688 37.5474 126.334 38.4167C125.981 39.286 125.804 40.3386 125.804 41.5744C125.804 42.8272 125.977 43.8926 126.321 44.7704C126.675 45.6483 127.17 46.3173 127.808 46.7775C128.445 47.2377 129.19 47.4679 130.043 47.4679C130.672 47.4679 131.237 47.34 131.736 47.0843C132.245 46.8287 132.663 46.4579 132.99 45.9721C133.326 45.4778 133.546 44.8855 133.649 44.1951H138.844C138.758 45.6951 138.345 47.0162 137.604 48.1582C136.871 49.2917 135.859 50.1781 134.567 50.8173C133.274 51.4565 131.745 51.7761 129.979 51.7761Z" fill="url(#paint4_linear_329_54)"/>
<path d="M151.338 51.7761C149.331 51.7761 147.595 51.3542 146.13 50.5105C144.674 49.6582 143.55 48.4735 142.757 46.9565C141.964 45.4309 141.568 43.6625 141.568 41.6511C141.568 39.6227 141.964 37.85 142.757 36.3329C143.55 34.8074 144.674 33.6227 146.13 32.7789C147.595 31.9267 149.331 31.5005 151.338 31.5005C153.346 31.5005 155.078 31.9267 156.534 32.7789C157.998 33.6227 159.127 34.8074 159.92 36.3329C160.712 37.85 161.109 39.6227 161.109 41.6511C161.109 43.6625 160.712 45.4309 159.92 46.9565C159.127 48.4735 157.998 49.6582 156.534 50.5105C155.078 51.3542 153.346 51.7761 151.338 51.7761ZM151.364 47.5574C152.277 47.5574 153.04 47.3017 153.652 46.7903C154.263 46.2704 154.724 45.563 155.035 44.6681C155.353 43.7733 155.513 42.7548 155.513 41.6127C155.513 40.4707 155.353 39.4522 155.035 38.5574C154.724 37.6625 154.263 36.9551 153.652 36.4352C153.04 35.9153 152.277 35.6554 151.364 35.6554C150.442 35.6554 149.667 35.9153 149.038 36.4352C148.418 36.9551 147.948 37.6625 147.629 38.5574C147.319 39.4522 147.164 40.4707 147.164 41.6127C147.164 42.7548 147.319 43.7733 147.629 44.6681C147.948 45.563 148.418 46.2704 149.038 46.7903C149.667 47.3017 150.442 47.5574 151.364 47.5574Z" fill="url(#paint5_linear_329_54)"/>
<path d="M27.6838 38.6061C27.7763 39.2405 27.8241 39.8891 27.8241 40.5488C27.8241 48.0047 21.714 54.0488 14.1767 54.0488C6.63945 54.0488 0.529297 48.0047 0.529297 40.5488C0.529297 33.093 6.63945 27.0488 14.1767 27.0488C17.1294 27.0488 19.8631 27.9764 22.0962 29.553V0.324219L45.1308 6.43188V16.9034L27.6838 12.0555V38.6061Z" fill="url(#paint6_linear_329_54)"/>
<defs>
<linearGradient id="paint0_linear_329_54" x1="80.819" y1="0.324219" x2="80.819" y2="54.0488" gradientUnits="userSpaceOnUse">
<stop stop-color="#762586"/>
<stop offset="1" stop-color="#4C0071"/>
</linearGradient>
<linearGradient id="paint1_linear_329_54" x1="80.819" y1="0.324219" x2="80.819" y2="54.0488" gradientUnits="userSpaceOnUse">
<stop stop-color="#762586"/>
<stop offset="1" stop-color="#4C0071"/>
</linearGradient>
<linearGradient id="paint2_linear_329_54" x1="80.819" y1="0.324219" x2="80.819" y2="54.0488" gradientUnits="userSpaceOnUse">
<stop stop-color="#762586"/>
<stop offset="1" stop-color="#4C0071"/>
</linearGradient>
<linearGradient id="paint3_linear_329_54" x1="80.819" y1="0.324219" x2="80.819" y2="54.0488" gradientUnits="userSpaceOnUse">
<stop stop-color="#762586"/>
<stop offset="1" stop-color="#4C0071"/>
</linearGradient>
<linearGradient id="paint4_linear_329_54" x1="80.819" y1="0.324219" x2="80.819" y2="54.0488" gradientUnits="userSpaceOnUse">
<stop stop-color="#762586"/>
<stop offset="1" stop-color="#4C0071"/>
</linearGradient>
<linearGradient id="paint5_linear_329_54" x1="80.819" y1="0.324219" x2="80.819" y2="54.0488" gradientUnits="userSpaceOnUse">
<stop stop-color="#762586"/>
<stop offset="1" stop-color="#4C0071"/>
</linearGradient>
<linearGradient id="paint6_linear_329_54" x1="80.819" y1="0.324219" x2="80.819" y2="54.0488" gradientUnits="userSpaceOnUse">
<stop stop-color="#762586"/>
<stop offset="1" stop-color="#4C0071"/>
</linearGradient>
</defs>
</svg>
