<svg width="160" height="54" viewBox="0 0 160 54" fill="none" xmlns="http://www.w3.org/2000/svg">
<path d="M34.9045 25.0311H41.7312L48.9414 42.622H49.2482L56.4585 25.0311H63.2852V51.2129H57.9158V34.1717H57.6985L50.9229 51.085H47.2667L40.4911 34.1078H40.2738V51.2129H34.9045V25.0311Z" fill="#F2ABC3"/>
<path d="M80.3359 42.8521V31.5765H85.782V51.2129H80.5533V47.6461H80.3487C79.9055 48.7967 79.1683 49.7214 78.1371 50.4203C77.1143 51.1191 75.8658 51.4686 74.3913 51.4686C73.0788 51.4686 71.924 51.1703 70.9268 50.5737C69.9297 49.9771 69.1499 49.1291 68.5874 48.0297C68.0334 46.9302 67.7521 45.6135 67.7436 44.0794V31.5765H73.1896V43.1078C73.1982 44.2669 73.5092 45.1831 74.1229 45.8564C74.7365 46.5297 75.559 46.8663 76.5902 46.8663C77.2465 46.8663 77.8601 46.7172 78.4311 46.4189C79.0021 46.112 79.4624 45.6603 79.8118 45.0637C80.1697 44.4672 80.3445 43.7299 80.3359 42.8521Z" fill="#F2ABC3"/>
<path d="M106.476 37.176L101.49 37.4828C101.405 37.0566 101.222 36.6731 100.941 36.3322C100.659 35.9828 100.289 35.7058 99.8285 35.5012C99.3768 35.2882 98.8356 35.1816 98.2049 35.1816C97.3612 35.1816 96.6495 35.3606 96.07 35.7186C95.4904 36.068 95.2006 36.5368 95.2006 37.1248C95.2006 37.5936 95.3881 37.9899 95.7631 38.3137C96.1381 38.6376 96.7816 38.8975 97.6935 39.0936L101.248 39.8095C103.157 40.2015 104.58 40.8322 105.517 41.7015C106.455 42.5708 106.924 43.7129 106.924 45.1277C106.924 46.4146 106.544 47.5439 105.786 48.5154C105.036 49.487 104.005 50.2456 102.692 50.791C101.388 51.3279 99.8839 51.5964 98.1793 51.5964C95.5799 51.5964 93.5089 51.0552 91.9663 49.9728C90.4322 48.8819 89.533 47.399 89.2688 45.524L94.6254 45.2427C94.7873 46.0353 95.1793 46.6404 95.8015 47.0581C96.4236 47.4672 97.2205 47.6717 98.1921 47.6717C99.1467 47.6717 99.9137 47.4885 100.493 47.122C101.081 46.747 101.38 46.2654 101.388 45.6774C101.38 45.1831 101.171 44.7782 100.762 44.4629C100.353 44.139 99.7219 43.8919 98.8697 43.7214L95.4691 43.0439C93.5515 42.6603 92.1239 41.9956 91.1864 41.0495C90.2575 40.1035 89.793 38.8975 89.793 37.4316C89.793 36.1703 90.1339 35.0836 90.8157 34.1717C91.506 33.2598 92.4734 32.5566 93.7177 32.0623C94.9705 31.568 96.4364 31.3208 98.1154 31.3208C100.596 31.3208 102.547 31.845 103.971 32.8933C105.402 33.9416 106.238 35.3691 106.476 37.176Z" fill="#F2ABC3"/>
<path d="M110.353 51.2129V31.5765H115.799V51.2129H110.353ZM113.089 29.0453C112.279 29.0453 111.585 28.7768 111.005 28.2399C110.434 27.6944 110.148 27.0424 110.148 26.2839C110.148 25.5339 110.434 24.8904 111.005 24.3535C111.585 23.8081 112.279 23.5353 113.089 23.5353C113.898 23.5353 114.589 23.8081 115.16 24.3535C115.739 24.8904 116.029 25.5339 116.029 26.2839C116.029 27.0424 115.739 27.6944 115.16 28.2399C114.589 28.7768 113.898 29.0453 113.089 29.0453Z" fill="#F2ABC3"/>
<path d="M129.034 51.5964C127.022 51.5964 125.292 51.1703 123.843 50.318C122.403 49.4572 121.295 48.264 120.52 46.7385C119.752 45.2129 119.369 43.4572 119.369 41.4714C119.369 39.46 119.757 37.6958 120.532 36.1788C121.316 34.6532 122.429 33.4643 123.869 32.612C125.309 31.7512 127.022 31.3208 129.008 31.3208C130.721 31.3208 132.221 31.6319 133.508 32.2541C134.795 32.8762 135.814 33.7498 136.564 34.8748C137.314 35.9998 137.727 37.3208 137.804 38.8379H132.664C132.52 37.8578 132.136 37.0694 131.514 36.4728C130.9 35.8677 130.095 35.5652 129.098 35.5652C128.254 35.5652 127.517 35.7953 126.886 36.2555C126.264 36.7072 125.778 37.3677 125.429 38.237C125.079 39.1064 124.904 40.1589 124.904 41.3947C124.904 42.6475 125.075 43.7129 125.416 44.5907C125.765 45.4686 126.255 46.1376 126.886 46.5978C127.517 47.0581 128.254 47.2882 129.098 47.2882C129.72 47.2882 130.278 47.1603 130.772 46.9047C131.275 46.649 131.689 46.2782 132.012 45.7924C132.345 45.2981 132.562 44.7058 132.664 44.0154H137.804C137.718 45.5154 137.309 46.8365 136.576 47.9785C135.852 49.112 134.85 49.9984 133.572 50.6376C132.294 51.2768 130.781 51.5964 129.034 51.5964Z" fill="#F2ABC3"/>
<path d="M150.163 51.5964C148.177 51.5964 146.46 51.1745 145.011 50.3308C143.57 49.4785 142.458 48.2939 141.674 46.7768C140.89 45.2512 140.498 43.4828 140.498 41.4714C140.498 39.443 140.89 37.6703 141.674 36.1532C142.458 34.6277 143.57 33.443 145.011 32.5993C146.46 31.747 148.177 31.3208 150.163 31.3208C152.148 31.3208 153.862 31.747 155.302 32.5993C156.751 33.443 157.867 34.6277 158.651 36.1532C159.435 37.6703 159.827 39.443 159.827 41.4714C159.827 43.4828 159.435 45.2512 158.651 46.7768C157.867 48.2939 156.751 49.4785 155.302 50.3308C153.862 51.1745 152.148 51.5964 150.163 51.5964ZM150.188 47.3777C151.092 47.3777 151.846 47.122 152.451 46.6106C153.056 46.0907 153.512 45.3833 153.819 44.4885C154.134 43.5936 154.292 42.5751 154.292 41.4331C154.292 40.291 154.134 39.2725 153.819 38.3777C153.512 37.4828 153.056 36.7754 152.451 36.2555C151.846 35.7356 151.092 35.4757 150.188 35.4757C149.276 35.4757 148.509 35.7356 147.887 36.2555C147.273 36.7754 146.809 37.4828 146.494 38.3777C146.187 39.2725 146.033 40.291 146.033 41.4331C146.033 42.5751 146.187 43.5936 146.494 44.4885C146.809 45.3833 147.273 46.0907 147.887 46.6106C148.509 47.122 149.276 47.3777 150.188 47.3777Z" fill="#F2ABC3"/>
<path d="M27.8437 38.4264C27.9351 39.0608 27.9824 39.7094 27.9824 40.3691C27.9824 47.825 21.9383 53.8691 14.4824 53.8691C7.02658 53.8691 0.982422 47.825 0.982422 40.3691C0.982422 32.9133 7.02658 26.8691 14.4824 26.8691C17.4032 26.8691 20.1074 27.7967 22.3164 29.3734V0.144531L45.1022 6.25219V16.7237L27.8437 11.8758V38.4264Z" fill="#F2ABC3"/>
</svg>
